name GIL02_slow1Moments.mot
datacolumns 7
datarows 33
range 0.18333329 0.44999996
endheader

                time	          RHipMoment	          LHipMoment	         RKneeMoment	         LKneeMoment	        RAnkleMoment	        LAnkleMoment	
          0.18333329	        424.64331055	       -154.43873596	         71.36854553	         25.95743179	         76.20130157	        -35.72949219	
          0.19166662	        430.89596558	       -174.57499695	         73.78838348	         39.46238327	         82.30306244	        -43.74226379	
          0.19999996	        411.82855225	       -199.93240356	         78.57382202	         56.11725998	         89.54833221	        -49.80107880	
          0.20833328	        373.22708130	       -221.87576294	         82.85841370	         73.52437592	        100.07118988	        -52.73035812	
          0.21666662	        320.79437256	       -234.28132629	         89.77603149	         88.75897217	        112.40357208	        -51.99464035	
          0.22499995	        277.57183838	       -232.64630127	         89.49883270	         99.29582977	        129.51062012	        -47.85800171	
          0.23333329	        255.10955811	       -215.51588440	         85.73712158	        104.12788391	        148.73457336	        -41.31459045	
          0.24166662	        257.32003784	       -191.38676453	         71.39509583	        104.05261993	        172.30915833	        -33.82782745	
          0.24999996	        269.26229858	       -169.63856506	         53.44678879	        100.78381348	        195.08615112	        -26.85601425	
          0.25833330	        284.06884766	       -153.61732483	         30.53062630	         95.68042755	        218.23887634	        -21.41057777	
          0.26666662	        278.63214111	       -142.69192505	         13.46242332	         89.38559723	        238.23385620	        -17.85096169	
          0.27499995	        254.01637268	       -133.97604370	         -1.35289073	         82.40337372	        260.70980835	        -15.91423225	
          0.28333330	        211.97575378	       -125.65643311	        -10.62823009	         75.43587494	        285.25463867	        -14.97624779	
          0.29166663	        171.13449097	       -115.94412994	        -21.01569748	         68.92120361	        314.85903931	        -14.37173367	
          0.29999995	        136.47868347	       -102.84101105	        -28.61552811	         62.61191559	        344.27664185	        -13.63946342	
          0.30833328	        115.79595184	        -87.80239868	        -38.08506012	         56.02377701	        376.39273071	        -12.68553066	
          0.31666660	         96.27267456	        -74.81865692	        -42.73884583	         48.96746063	        408.96026611	        -11.69098854	
          0.32499996	         85.46969604	        -65.88239288	        -50.08129883	         41.26368332	        443.07046509	        -10.84937572	
          0.33333328	         80.92935944	        -60.11659622	        -56.59801102	         32.40843582	        475.16448975	        -10.25083065	
          0.34166664	         87.53607178	        -54.74797440	        -67.14971161	         21.98128891	        509.78503418	         -9.89552212	
          0.34999996	         90.19294739	        -48.52635574	        -72.33316803	         10.29166317	        543.89367676	         -9.73509216	
          0.35833329	         97.71587372	        -40.66693115	        -78.47521973	         -1.45426846	        578.60467529	         -9.69407082	
          0.36666662	        106.23171997	        -31.49640274	        -83.66643524	        -11.64470768	        611.22064209	         -9.71827698	
          0.37499994	        112.26825714	        -24.76969719	        -91.77681732	        -19.00138474	        644.56567383	         -9.86107826	
          0.38333327	         93.78808594	        -22.35320854	        -95.20945740	        -23.04120064	        675.97656250	        -10.22791767	
          0.39166662	         52.23229218	        -23.66738701	        -96.82266235	        -24.22040939	        707.61566162	        -10.82508373	
          0.39999995	         -6.10894203	        -28.63119125	        -94.43186951	        -23.54182816	        736.92254639	        -11.52090740	
          0.40833330	        -57.46547318	        -36.03544998	        -95.49465179	        -22.04731941	        765.61212158	        -12.12770081	
          0.41666663	        -96.11510468	        -43.39379883	        -96.64674377	        -20.99125481	        790.12896729	        -12.49499893	
          0.42499995	       -106.20105743	        -46.03380966	       -105.59841156	        -21.82339859	        813.29205322	        -12.54730034	
          0.43333328	        -97.72893524	        -39.46901321	       -116.23252869	        -25.42562485	        832.58709717	        -12.30911350	
          0.44166663	        -72.05666351	        -23.27561569	       -133.38432312	        -31.80911255	        851.67150879	        -11.92033386	
          0.44999996	        -48.98864365	          1.06212449	       -150.68771362	        -40.62732697	        869.23681641	        -11.54622650	
